<?xml version="1.0" encoding="utf-8"?>
<!-- Generator: Adobe Illustrator 19.2.1, SVG Export Plug-In . SVG Version: 6.00 Build 0)  -->
<svg version="1.1" id="Réteg_1" xmlns="http://www.w3.org/2000/svg" xmlns:xlink="http://www.w3.org/1999/xlink" x="0px" y="0px"
	 viewBox="0 0 198.4 113.4" style="enable-background:new 0 0 198.4 113.4;" xml:space="preserve">
<style type="text/css">
	.st0{fill:#FFFFFF;}
</style>
<g>
	<g>
		<path class="st0" d="M153.9,44.8c1,0,1.9,0.2,2.7,0.5c0.8,0.3,1.4,0.8,1.9,1.3c0.5,0.6,0.9,1.2,1.1,1.9s0.4,1.5,0.4,2.4
			s-0.1,1.6-0.4,2.4s-0.7,1.4-1.2,2c-0.5,0.6-1.2,1-2,1.4c-0.8,0.3-1.7,0.5-2.8,0.5h-5.1V44.8H153.9z M151.6,47.2v7.5h2
			c0.5,0,1-0.1,1.4-0.3c0.4-0.2,0.8-0.4,1.1-0.8c0.3-0.3,0.5-0.7,0.7-1.2c0.2-0.5,0.2-1,0.2-1.5c0-1.1-0.3-2-0.8-2.7s-1.3-1-2.3-1
			H151.6z"/>
		<path class="st0" d="M170.8,44.8h3.1v7.6c0,1-0.2,1.8-0.5,2.4c-0.3,0.6-0.8,1.2-1.3,1.5c-0.5,0.4-1.1,0.6-1.8,0.8s-1.4,0.2-2,0.2
			s-1.4-0.1-2-0.2c-0.7-0.2-1.3-0.4-1.8-0.8c-0.5-0.4-1-0.9-1.3-1.5c-0.3-0.6-0.5-1.5-0.5-2.4v-7.6h3.1v8.1c0,0.4,0.1,0.7,0.2,1
			c0.2,0.3,0.3,0.5,0.6,0.6c0.2,0.2,0.5,0.3,0.8,0.3c0.3,0.1,0.6,0.1,0.9,0.1s0.6,0,0.9-0.1s0.6-0.2,0.8-0.3
			c0.2-0.2,0.4-0.4,0.6-0.6c0.2-0.3,0.2-0.6,0.2-1V44.8z"/>
		<path class="st0" d="M181.1,57.4c-0.7,0-1.3-0.1-1.8-0.2c-0.5-0.1-1-0.3-1.4-0.5s-0.7-0.5-1-0.7c-0.3-0.3-0.5-0.5-0.7-0.8
			c-0.2-0.3-0.3-0.5-0.4-0.8s-0.1-0.5-0.1-0.6h3.4c0,0.1,0,0.3,0.1,0.4c0.1,0.1,0.2,0.3,0.4,0.4c0.2,0.1,0.4,0.2,0.6,0.3
			s0.6,0.1,0.9,0.1c0.7,0,1.3-0.1,1.7-0.3s0.7-0.5,0.7-0.9c0-0.3-0.1-0.5-0.2-0.7c-0.1-0.2-0.3-0.3-0.6-0.4
			c-0.2-0.1-0.5-0.2-0.9-0.2c-0.3,0-0.7-0.1-1-0.1c-0.5,0-1-0.1-1.6-0.3c-0.6-0.1-1.1-0.3-1.6-0.6c-0.5-0.3-0.9-0.6-1.2-1.1
			c-0.3-0.5-0.5-1.1-0.5-1.8c0-0.8,0.2-1.4,0.5-2s0.7-0.9,1.2-1.2c0.5-0.3,1-0.5,1.6-0.6s1.1-0.2,1.7-0.2c0.8,0,1.4,0.1,2,0.2
			c0.6,0.1,1.1,0.3,1.5,0.5c0.4,0.2,0.8,0.4,1,0.7c0.3,0.3,0.5,0.5,0.6,0.8c0.2,0.3,0.3,0.5,0.3,0.8c0.1,0.3,0.1,0.5,0.1,0.6h-3.3
			c0-0.3-0.2-0.5-0.5-0.7c-0.4-0.2-0.9-0.3-1.6-0.3c-0.7,0-1.2,0.1-1.5,0.4c-0.3,0.2-0.5,0.5-0.5,0.8c0,0.3,0.1,0.5,0.2,0.7
			c0.2,0.2,0.4,0.3,0.6,0.4s0.6,0.2,1,0.2c0.4,0.1,0.8,0.1,1.2,0.2c0.5,0.1,1,0.2,1.5,0.3s1,0.3,1.4,0.6s0.8,0.6,1.1,1.1
			c0.3,0.4,0.4,1,0.4,1.7c0,0.8-0.1,1.4-0.4,1.9c-0.3,0.5-0.7,0.9-1.2,1.3s-1.1,0.6-1.8,0.7C182.7,57.3,182,57.4,181.1,57.4z"/>
	</g>
	<g>
		<path class="st0" d="M10.8,45.2h5.5c0.6,0,1.2,0,1.8,0.1c0.6,0.1,1.1,0.3,1.5,0.5c0.4,0.2,0.8,0.6,1,1c0.3,0.4,0.4,0.9,0.4,1.5
			c0,0.4-0.1,0.8-0.2,1.1s-0.3,0.6-0.5,0.8s-0.5,0.4-0.8,0.5c-0.3,0.1-0.7,0.3-1.1,0.3c0.4,0.1,0.8,0.2,1.2,0.3
			c0.4,0.1,0.7,0.3,1,0.6c0.3,0.2,0.5,0.5,0.7,0.9c0.2,0.3,0.3,0.8,0.3,1.2c0,0.7-0.1,1.2-0.4,1.7s-0.6,0.8-1.1,1.1
			c-0.5,0.3-1,0.5-1.6,0.6s-1.3,0.2-2.1,0.2h-5.5V45.2z M13.8,47.5v2.4h2.5c0.2,0,0.4,0,0.6,0s0.4,0,0.5-0.1
			c0.2-0.1,0.3-0.2,0.4-0.4s0.2-0.4,0.2-0.7c0-0.3-0.1-0.5-0.2-0.7c-0.1-0.2-0.3-0.3-0.4-0.4c-0.2-0.1-0.3-0.1-0.5-0.1s-0.4,0-0.5,0
			H13.8z M13.8,52.1v3.2h2.5c0.3,0,0.5,0,0.7-0.1c0.2-0.1,0.5-0.1,0.6-0.3s0.3-0.3,0.4-0.5c0.1-0.2,0.2-0.5,0.2-0.8
			c0-0.4-0.1-0.7-0.2-0.9c-0.2-0.2-0.3-0.4-0.5-0.5c-0.2-0.1-0.4-0.2-0.7-0.2s-0.4,0-0.6,0H13.8z"/>
		<path class="st0" d="M29.7,45.2c1,0,1.9,0.2,2.7,0.5c0.8,0.3,1.4,0.8,1.9,1.3c0.5,0.6,0.9,1.2,1.1,1.9c0.3,0.7,0.4,1.5,0.4,2.4
			s-0.1,1.6-0.4,2.4c-0.3,0.8-0.7,1.4-1.2,2s-1.2,1-2,1.4c-0.8,0.3-1.7,0.5-2.8,0.5h-5.1V45.2H29.7z M27.4,47.6v7.5h2
			c0.5,0,1-0.1,1.4-0.3s0.8-0.4,1.1-0.8s0.5-0.7,0.7-1.2c0.2-0.5,0.2-1,0.2-1.5c0-1.1-0.3-2-0.8-2.7c-0.5-0.7-1.3-1-2.3-1H27.4z"/>
		<path class="st0" d="M38.6,45.2h3v5l4.4-5h3.7L45.2,50c0.2,0.1,0.3,0.3,0.6,0.5c0.2,0.2,0.4,0.5,0.7,1c0.3,0.4,0.6,1,1.1,1.7
			l2.5,4.3h-3.4l-1.7-3.2c-0.3-0.5-0.5-0.9-0.7-1.2c-0.2-0.3-0.4-0.5-0.5-0.7c-0.2-0.2-0.3-0.3-0.4-0.4l-1.6,1.8v3.6h-3V45.2z"/>
	</g>
</g>
<g>
	<g>
		<path class="st0" d="M139.3,18.2c-0.1-0.1-3.1-2.8-9.7-5.5c-6-2.5-16.2-5.4-30.8-5.4c-14.7,0-24.9,2.9-30.8,5.4
			c-6.5,2.7-9.5,5.4-9.7,5.5c-1.2,1-2.1,3.1-2.1,4.6v56c0,1.6,1.1,3.5,2.5,4.3l37.6,22.2c0.7,0.4,1.6,0.6,2.5,0.6
			c0.9,0,1.8-0.2,2.5-0.6l37.6-22.2c1.4-0.8,2.5-2.7,2.5-4.3v-56C141.3,21.3,140.4,19.3,139.3,18.2z M138.2,19.5
			c0.8,0.7,1.5,2.3,1.5,3.4v33l-29.1,0c-0.3-6-5-10.8-11-11.2V9c13.9,0.1,23.6,2.9,29.3,5.2C135.2,16.8,138.2,19.4,138.2,19.5z
			 M98.8,66.9c-1.8,0-3.6-0.5-5.1-1.3c-1.6-0.9-3-2.2-3.9-3.8c0,0,0,0,0,0c0,0,0,0,0-0.1c-0.6-1-0.7-2.3-0.4-3.4
			c0.3-1.2,1.1-2.1,2.1-2.7c0.7-0.4,1.5-0.6,2.3-0.6h0c1.6,0,3.1,0.9,3.9,2.3c1.1,2,0.6,4.5-1.2,5.9L96,63.3l0.4,0.3
			c1.6,1.3,3.6,2,5.6,2c0.9,0,1.7-0.1,2.5-0.4c-0.1,0.1-0.3,0.2-0.5,0.3C102.4,66.4,100.6,66.9,98.8,66.9z M98.7,46
			C98.8,46,98.8,46,98.7,46C98.8,46,98.8,46,98.7,46C98.8,46,98.8,46,98.7,46c0.1,0,0.1,0,0.1,0c1.2,0,2.3,0.5,3.2,1.3
			c0.8,0.9,1.3,2,1.3,3.2c0,0.8-0.2,1.6-0.6,2.3c-0.8,1.4-2.3,2.2-3.9,2.2c-2.3,0-4.2-1.7-4.5-4l-0.1-0.5l-0.4,0.2
			c-1.7,0.6-3.1,1.8-4.1,3.2c-0.6,0.9-1.1,1.9-1.4,3c0-0.2,0-0.3,0-0.5c0-2.8,1.1-5.4,3-7.4C93.3,47.1,95.9,46,98.7,46z M104,63.9
			c-0.8,0-1.6-0.2-2.3-0.6c-0.7-0.4-1.3-1-1.7-1.7c-0.8-1.4-0.8-3.1,0-4.5c0.8-1.4,2.3-2.3,3.9-2.3c0.6,0,1.2,0.1,1.8,0.4l0.4,0.2
			l0.1-0.5c0.3-1.8,0-3.6-0.7-5.2c-0.5-1-1.1-1.9-1.9-2.7c0.2,0.1,0.3,0.2,0.5,0.2c2.4,1.4,4.1,3.6,4.9,6.3c0.7,2.7,0.4,5.5-1,7.9
			l0,0l0,0l0,0c0,0,0,0,0,0C107,63.1,105.5,63.9,104,63.9z M59.4,19.5C59.5,19.4,71.1,9.2,98,9v35.7c-6,0.4-10.7,5.2-11,11.2
			l-29.1,0v-33C57.9,21.8,58.6,20.2,59.4,19.5z M59.6,81.8c-0.9-0.5-1.7-1.9-1.7-2.9V57.5l29.1,0c0.5,5.8,5.2,10.3,11,10.7l0,36.1
			c-0.3-0.1-0.6-0.2-0.8-0.3L59.6,81.8z M138,81.8L100.4,104c-0.2,0.1-0.5,0.2-0.8,0.3l0-36.1c5.8-0.4,10.4-5,11-10.7l29.1,0v21.4
			C139.7,79.9,138.9,81.3,138,81.8z"/>
	</g>
	<g>
		<path class="st0" d="M103.2,24.3c0,0-0.1,0.1,0.2,0.2c0.1,0,0.3,0,0.4,0c0.4,0,0.8,0,1.2,0c0,0,0.1,0,0.1,0c0.1,0,0.1,0.1,0,0.2
			c0,0-0.1,0.1-0.1,0.1c-0.1,0.1-0.1,0.2,0,0.3c0.1,0.1,0.2,0,0.2-0.1c0.1-0.2,0.4-0.3,0.5-0.5c0.1-0.1,0.2-0.2,0.2-0.2
			c0.1,0,0.1-0.1,0.2-0.1c0.1,0,0.2,0,0.3,0c0.5,0.1,1,0.2,1.5,0.4c0.7,0.2,1.4,0.4,2.1,0.4c0.3,0,0.6,0.1,0.8,0.3
			c0.2,0.2,0.5,0.4,0.9,0.5c0.1,0,0.2,0.1,0.2,0.1c-0.1,0.1-0.3,0.2-0.4,0.1c-0.1,0-0.2,0-0.3,0c-0.1,0-0.1,0-0.2,0
			c-0.1,0.1-0.3,0.1-0.4,0.2c-0.1,0-0.2,0.1-0.3,0.1c-0.3,0-0.4,0.2-0.5,0.4c-0.3,0.6-0.3,1.2-0.1,1.8c0,0,0,0.1,0,0.1
			c0.1,0.1,0.2,0.1,0.3,0.2c0.1,0.1,0.2,0.2,0.3,0.2c0.2,0.1,0.4,0.2,0.5,0.2c0.1,0.1,0.5,0,0.6,0c0.2,0,0.5,0,0.7-0.1
			c0.1-0.1,0.2-0.1,0.2-0.1c0.4,0,0.7,0.1,0.9,0.5c0.1,0.2,0.2,0.5,0.2,0.7c0,0,0,0.1,0,0.1c-0.3,0.2-0.4,0.6-0.4,0.9
			c0,0.3,0.1,0.7,0.2,1c0.1,0.4,0.2,0.7,0.1,1.1c-0.1,0.2-0.1,0.5-0.2,0.7c-0.1,0.5-0.3,1-0.4,1.5c0,0.2-0.1,0.3-0.2,0.5
			c-0.1,0.5-0.1,0.9-0.1,1.4c0,0.3,0,0.5,0,0.8c0,0.4-0.1,0.8-0.1,1.2c0,0.4-0.2,0.6-0.6,0.6c-0.2,0-0.4,0.1-0.6,0.1
			c-0.1,0-0.2,0.1-0.3,0.1c-0.4,0-0.7,0.1-1.1,0.2c-0.2,0-0.2,0.1-0.2,0.3c0.5,0,0.9,0,1.4,0c0,0.2,0.1,0.2,0.3,0.2
			c0.4,0,0.8-0.1,1.1-0.1c0.1,0,0.2,0,0.3-0.1c0.1-0.2,0.2-0.4,0.3-0.6c0.1-0.4,0.2-0.8,0.4-1.1c0.3-0.7,0.5-1.4,0.5-2.2
			c0-0.1,0-0.2,0.1-0.4c0.1-0.3,0.2-0.5,0.2-0.8c0-0.1,0-0.2,0.1-0.3c0.2-0.4,0.3-0.7,0.5-1.1c0.2-0.5,0.4-1.1,0.4-1.7
			c0-0.2,0.1-0.3,0.2-0.4c0.5-0.3,0.9-0.5,1.5-0.6c0.5-0.1,1-0.1,1.4-0.3c0.1,0,0.1,0,0.2,0c0.7,0,1.3,0.1,1.9,0.3
			c0.1,0.1,0.3,0.2,0.3,0.3c0.1,0.2,0.2,0.5,0.4,0.6c0.3,0.3,0.6,0.6,1,0.8c0.2,0.1,0.3,0.2,0.5,0.2c0.1,0,0.3,0.1,0.4,0.1
			c0.4,0.1,0.7,0.2,1,0.5c0,0,0.1,0.1,0.1,0.1c0.4,0.3,0.8,0.6,1.3,0.9c0.1,0.1,0.1,0.1,0.1,0.2c0,0,0,0.1,0,0.1
			c-0.1,0.4-0.2,0.7-0.2,1.1c-0.1,0.5-0.3,1.1-0.4,1.6c-0.1,0.4-0.2,0.8-0.4,1.1c0,0.1,0,0.2,0,0.2c0,0.1,0,0.1,0,0.2
			c0,0.1-0.1,0.2-0.2,0.3c-0.1,0.2-0.2,0.4-0.2,0.5c0,0.2,0.1,0.3,0.2,0.3c0.2,0,0.4,0,0.6,0c0.1,0,0.2,0,0.2,0
			c0.1,0,0.3-0.1,0.4-0.1c0.5,0,1,0,1.5,0c0.1,0,0.2-0.1,0.3-0.2c0-0.1,0-0.2,0-0.2c0,0-0.2,0-0.2,0c-0.1,0-0.2,0-0.2,0
			c-0.3-0.2-0.5-0.3-0.7-0.5c-0.1-0.1-0.2-0.2-0.3-0.3c-0.2-0.3-0.2-0.7-0.1-1c0.1-0.4,0.3-0.8,0.5-1.1c0.2-0.4,0.5-0.8,0.7-1.1
			c0.1,0,0.1,0.1,0.1,0.1c0.4,0.4,0.8,0.8,1.2,1.1c0,0,0,0,0,0.1c0.2,0.2,0.4,0.5,0.6,0.7c0.4,0.4,0.8,0.8,1.3,1.1
			c0.7,0.4,1.5,0.7,2.3,1c0.6,0.3,1.1,0.6,1.6,1c0.1,0.1,0.2,0.2,0.3,0.2c0.2,0,0.3,0.2,0.4,0.3c0,0.1,0.1,0.2,0.1,0.3
			c0,0,0,0.1,0.1,0.1c0.1,0.1,0.3,0.1,0.5,0.1c0.1,0,0.1-0.1,0.2-0.1c0-0.1,0.1-0.1,0.1-0.2c0.2-0.1,0.3-0.2,0.5-0.3
			c0.3-0.1,0.4-0.5,0.1-0.7c0,0-0.1-0.1-0.1-0.1c0-0.2-0.1-0.3-0.3-0.4c-0.1,0-0.2-0.1-0.3-0.1c-0.1,0-0.1,0.1-0.2,0.1c0,0,0,0,0,0
			c-0.3-0.2-0.6-0.4-0.9-0.6c-0.1-0.1-0.3-0.1-0.4-0.1c-0.5-0.2-0.9-0.4-1.2-0.7c-0.5-0.4-1-0.9-1.5-1.4c-0.2-0.2-0.5-0.4-0.8-0.5
			c-0.3-0.1-0.5-0.3-0.7-0.5c-0.2-0.3-0.5-0.6-0.7-0.8c-0.2-0.2-0.3-0.4-0.5-0.6c-0.2-0.3-0.4-0.6-0.6-0.9c-0.1-0.1-0.1-0.1,0-0.2
			c0.2-0.3,0.3-0.5,0.3-0.9c0-0.2,0-0.3-0.1-0.5c-0.1-0.3-0.4-0.5-0.6-0.7c-0.4-0.4-0.8-0.8-1.2-1.2c-0.5-0.5-1.1-0.9-1.7-1.2
			c-0.3-0.1-0.5-0.3-0.7-0.5c-0.1-0.1-0.3-0.2-0.4-0.3c-0.1-0.1-0.3-0.1-0.5-0.2c-0.2-0.1-0.4-0.3-0.7-0.3c-0.1,0-0.1,0-0.2-0.1
			c-0.1-0.1-0.2-0.1-0.4-0.2c-0.3-0.2-0.6-0.3-0.9-0.5c-0.3-0.2-0.5-0.4-0.8-0.6c-0.3-0.2-0.6-0.3-0.9-0.3c-0.3,0-0.6-0.2-0.9-0.3
			c-0.2-0.1-0.3-0.1-0.5-0.1c-0.1,0-0.3,0-0.4,0c-0.5-0.1-0.9-0.3-1.4-0.4c-0.2,0-0.4,0-0.5-0.1c-0.3-0.1-0.6-0.2-0.8-0.4
			c-0.7-0.5-1.4-0.8-2.2-1c-0.5-0.1-0.9-0.2-1.4-0.4c-0.3-0.1-0.6-0.2-0.9-0.3c-0.5,0-0.9-0.2-1.4-0.3c-0.3,0-0.7,0-1.1-0.1
			c-0.5,0-1-0.1-1.5-0.1c-0.1,0-0.1,0-0.2,0c-0.4,0-0.8,0.3-1.1,0.4c-0.2,0.1-0.4,0.1-0.6,0c-0.1,0-0.2-0.1-0.3-0.1
			c-0.2,0.1,0.2,0.2,0.3,0.4c-0.3,0-0.5,0-0.7,0c-0.3,0-0.2,0.1-0.2,0.1s-0.1,0-0.1,0c0,0,0,0,0,0c0,0-0.1,0-0.1,0
			C103.2,24.3,103.2,24.3,103.2,24.3z"/>
	</g>
	<g>
		<path class="st0" d="M92.2,82.4c-0.1-0.1,0-0.2-0.2-0.2c0,0-0.2,0.1-0.2,0c-0.1-0.1,0.1-0.2,0.2-0.2c0-0.1,0-0.1-0.1-0.1
			c-0.1,0-0.1,0-0.2,0c0,0-0.1-0.1-0.2-0.1c-0.2-0.1-0.4-0.1-0.6-0.1c-0.3,0-0.7,0.1-1,0.1c-0.3,0-0.5-0.1-0.8-0.2
			c-0.1-0.1-0.3-0.1-0.4-0.1c-0.1,0-0.2,0-0.3,0c-0.1,0-0.3,0.1-0.3,0.3c0,0.2-0.1,0.3-0.2,0.5c0,0.1-0.1,0.2-0.2,0.3
			c-0.2,0.1-0.4,0.2-0.6,0.2c0,0-0.1,0-0.1,0c0,0,0-0.1-0.1-0.1c-0.1-0.1-0.1-0.3-0.2-0.4c0,0,0-0.1-0.1-0.1
			c-0.1-0.1-0.2-0.3-0.4-0.3c-0.2,0-0.3,0.2-0.4,0.3c-0.1,0.2-0.1,0.4-0.2,0.6c0,0.1-0.1,0.1-0.1,0.2c-0.1,0.1-0.3,0.2-0.4,0.3
			c0,0-0.1,0-0.1,0c-0.2,0-0.4,0.1-0.5,0.2c0,0-0.1,0.1-0.1,0.1c0,0,0,0-0.1,0c-0.1,0-0.3-0.1-0.4-0.1c-0.1,0-0.2-0.1-0.3,0
			c0,0-0.1,0-0.2,0c-0.2,0-0.3,0-0.4,0.1c0,0,0,0-0.1,0c-0.1-0.1-0.3-0.1-0.3-0.3c0,0,0,0,0-0.1c-0.1-0.3-0.1-0.5-0.1-0.8
			c0,0,0,0,0,0c0-0.1,0-0.2,0-0.4c0-0.1,0-0.2,0-0.4c0-0.2-0.1-0.3-0.1-0.5c0,0,0-0.1,0-0.2c0-0.1,0.1-0.1,0.1-0.1
			c0.1-0.1,0.2-0.2,0.1-0.3c0-0.1,0-0.1,0-0.2c0-0.1,0-0.2,0.1-0.2c0.1-0.1,0.2-0.2,0.2-0.3c0-0.1,0.1-0.2,0.1-0.4
			c0-0.1,0.1-0.5,0.1-0.6c0-0.1,0-0.1,0-0.2c0-0.1-0.1-0.3,0-0.4c0.1-0.2,0.1-0.3,0.1-0.5c0.1-0.4,0.2-0.8,0.2-1.2
			c0-0.2,0-0.3-0.2-0.5c0,0,0,0,0,0c-0.1-0.1-0.2-0.2-0.3-0.3c0,0,0,0,0-0.1c0-0.1,0-0.3,0-0.4c0-0.1,0-0.2-0.1-0.2
			c0,0-0.1-0.1-0.1-0.1c0-0.1,0-0.2,0-0.3c0-0.1,0-0.3,0-0.4c0-0.3,0-0.6-0.1-0.9c0-0.3,0-0.6-0.1-0.9c0-0.4,0-0.7-0.1-1.1
			c-0.1-0.2-0.1-0.5-0.2-0.7c-0.2-0.4-0.5-0.8-0.8-1.2c-0.2-0.3-0.6-0.5-0.9-0.7c0,0,0,0,0,0c-0.2-0.1-0.5-0.2-0.7-0.3
			c-0.2-0.1-0.3-0.2-0.4-0.4c-0.2-0.3-0.3-0.7-0.4-1.1c0-0.2,0.1-0.3,0.1-0.5c0-0.2,0-0.4,0-0.6c0-0.3-0.1-0.5-0.3-0.8
			c-0.3-0.3-0.6-0.6-1-0.6c-0.3,0-0.5,0-0.8,0c-0.5,0.1-0.8,0.4-1.1,0.8c-0.1,0.1-0.1,0.3-0.1,0.4c0,0.2,0,0.5,0.1,0.7
			c0,0.5,0.2,0.4,0.2,0.6c0,0.2,0.1,0.4,0.1,0.5c0.2,0.3,0.2,0.6,0.4,0.8c0,0.1,0,0.2,0.1,0.3c0,0.1,0.2,0.2,0.2,0.2
			c-0.1,0-0.2,0.1-0.3,0.2c-0.1,0.1,0-0.2,0-0.3c0-0.1,0-0.2-0.1-0.2c-0.1,0-0.1,0-0.1,0c0,0.2,0,0.5-0.1,0.7
			c-0.3,0.3-0.4,0.5-0.6,0.9c0,0.1-0.1,0.2-0.1,0.4c-0.1,0.1-0.2,0.3-0.3,0.3c-0.2,0.1-0.3,0.2-0.4,0.3c0,0.1-0.1,0.1-0.1,0.2
			c0-0.2-0.1-0.3-0.1-0.5c-0.2-0.3-0.2-1-0.2-1.1c0-0.1-0.2,0-0.4,0c-0.1,0.1-0.3,0.1-0.4,0.1c-0.1,0-0.2,0-0.3,0.1
			c-0.1,0.1-0.2,0.2-0.2,0.3c-0.1,0.2-0.3,0.4-0.4,0.5c0,0.1-0.1,0.1-0.1,0c-0.1,0-0.1-0.1-0.2-0.1c-0.4-0.1-1-0.5-1.1-0.4
			c-0.1,0.1-0.2,0.7-0.5,0.7c-0.6-0.1-1.1-0.3-1.6-0.5c-0.1,0-0.2-0.1-0.3-0.1c-0.3-0.1-0.6-0.3-0.9-0.4c-0.2-0.1-0.4-0.2-0.7-0.3
			c-0.1,0-0.3,0-0.4-0.1c-0.3-0.1-0.7-0.3-0.8-0.7c-0.1-0.3-0.5-0.9-0.6-0.9c-0.2,0.1-0.1,0.2-0.1,0.3c0,0-0.1,0-0.1,0.1
			C65.1,68.9,65,69,65,69.1c0,0,0,0.1,0,0.2c0.1,0.1,0.1,0.2,0.2,0.3c0,0,0,0,0,0.1c0,0.1,0,0.3,0,0.4c0,0.2,0.1,0.3,0.2,0.4
			c0.1,0.1,0.3,0.2,0.4,0.3c0.2,0.1,0.4,0.2,0.7,0.3c0.1,0,0.1,0.1,0.2,0.1c0.1,0.1,0.1,0.2,0.2,0.3c0.1,0.2,0.2,0.4,0.2,0.6
			c0,0.4,0.1,0.7,0.4,0.9c0.1,0.1,0.5,0.2,0.9-0.1c0.1-0.1,0.2-0.1,0.4-0.1c0.1,0,0.3,0,0.4,0c0,0,0.3,0.1,0.4,0.1
			c0.4,0.2,0.8,0.3,1.2,0.5c0.1,0,0.2,0.1,0.3,0.1c0.3,0.1,0.6,0.3,0.9,0.5c0.2,0.1,0.3,0.2,0.5,0.3c0.3,0.1,0.6,0.2,0.9,0.3
			c0.3,0,0.7,0.1,1,0.1c0.2,0,0.4,0,0.6,0.1c0.1,0,0.1,0.1,0.1,0.1c0.1,0.2,0.2,0.3,0.4,0.4c-0.1,0.1-0.2,0.1-0.2,0.2
			c-0.1,0.1,0.1,0.2,0.1,0.3c-0.2,0.2-0.2,0.3,0,0.4c-0.2,0.2-0.2,0.3,0,0.4c0,0,0,0.1,0,0.1c0,0.1,0,0.1,0,0.2
			c0.1,0.2,0.3,0.3,0.5,0.2c0,0,0.1,0,0.1,0c0.2,0.2,0.4,0.2,0.6,0.3c0.3,0,0.6,0,1,0.1c0,0,0,0,0.1,0c0.1,0.1,0.2,0.2,0.3,0.3
			c0.2,0.2,0.4,0.4,0.6,0.6c0,0.1,0,0.2-0.1,0.2c-0.1,0.3,0,0.5,0.1,0.7c0.2,0.6,0.4,1.2,0.5,1.8c0.1,0.3,0.1,0.6,0.3,0.9
			c0.1,0.1,0.1,0.2,0.1,0.4c0,0.1,0.1,0.3,0.1,0.4c0.2,0.8,0.4,1.6,0.7,2.4c0.1,0.2,0.4,1.6,0.7,1.8c0,0,0,0,0,0
			c0.1,0.1,0.2,0.2,0.3,0.3c0.2,0.1,0.4,0.3,0.7,0.3c0.1,0,0.1,0,0.2,0c0,0,0.1,0,0.1,0c0.2,0,0.4,0,0.7-0.1c0.2,0,0.5,0,0.7-0.1
			c0.2-0.1,1-0.9,1.1-0.9c0.2,0,0.3-0.2,0.5-0.4c0.2-0.1,0.3-0.3,0.4-0.4c0.1-0.1,0.1-0.1,0.2-0.2c0,0,0.1-0.1,0.1-0.1
			c0.1-0.1,0.5-0.4,0.6-0.5c0,0,0,0,0,0c0,0,0,0,0,0c0.2-0.1,0.5-0.2,0.6-0.4c0.1-0.1,0.2-0.2,0.3-0.2c0.3-0.1,0.6-0.2,0.9-0.3
			c0.3-0.1,0.6-0.2,0.9-0.3c0.2-0.1,0.3-0.1,0.5-0.2c0.1-0.1,0.3-0.1,0.4-0.2c0.1-0.1,0.3-0.1,0.4-0.2c0.2-0.1,0.4-0.2,0.6-0.1
			c0.1,0,0.3,0.1,0.4,0.1c0.1,0,0.2,0,0.3,0.1c0.1,0.2,0.3,0,0.3-0.1c0,0,0-0.2,0-0.2c0,0,0.2,0,0.2,0c0,0,0-0.1,0-0.1
			C92.3,82.5,92.2,82.5,92.2,82.4z M77.8,73.4c-0.2-0.1-0.4,0-0.5-0.2c-0.1-0.2-0.1-0.4-0.3-0.4c-0.2,0-0.2-0.2-0.3-0.3
			c-0.1,0-0.5-0.2-0.5-0.2c0,0,0.3-0.3,0.3-0.4c0.1-0.1,0.2-0.2,0.3-0.3c0,0,0.2-0.1,0.2-0.1c0.1,0.1,0.1,0.4,0.2,0.5
			c0.1,0.1,0.2,0.5,0.3,0.6c0.2,0.1,0.3,0.5,0.5,0.6C78.2,73.6,77.9,73.5,77.8,73.4z"/>
	</g>
	<g>
		<path class="st0" d="M61.6,41.3c0.2,0.2,0.5,0.2,0.8,0.3c0.2,0,0.2,0,0.3,0c0,0,0.1,0,0.2,0c0.1,0,0.1,0,0.2,0
			c0.1-0.1,0.3-0.1,0.3-0.1c0.1-0.1,0.1-0.2,0-0.3c0,0-0.4,0-0.4-0.6c0-0.2,0-0.2,0.1-0.4c0.1-0.2,0.1-0.2,0.1-0.4
			c0.1-0.2,0.6-0.7,0.7-0.8c0.1-0.1,0.6-0.7,0.7-0.8c0.1-0.1,0.6-0.6,0.7-0.8c0.1-0.1,0.2-0.3,0.3-0.4c0.4-0.4,0.5-1,1-1.4
			c0.1-0.1,0.4-0.5,0.5-0.5c0.2,0,0.5,0,0.7-0.1c0.2-0.1,0.5,0.1,0.7-0.1c0.2-0.2,0-0.5,0.2-0.7c0.1-0.1,0.9,0.6,1,0.7
			c0.2,0.1,0.5,0.3,0.7,0.4c0.3,0.2,0.4,0.3,0.7,0.3c0.3,0,0.5-0.1,0.7-0.3c0.1-0.1,0.1-0.2,0.2-0.3c0.1-0.1,0.2,0,0.3,0
			c0.2,0.1,0.4,0.2,0.6,0.2c0.2,0.1,0.1,0.1,0.1,0.3c0,0.1-0.1,0.9-0.1,1.2c0,0.2,0,0.3,0,0.5c0,0.1,0.1,1,0.1,1.4
			c0,0.3,0,0.6,0,0.9c0,0.2-0.1,0.3-0.1,0.4c0,0.1,0,0.3,0,0.4c-0.1,0.3,0.3,0.3,0.5,0.3c0.4,0,0.9,0,1.3,0c0.3,0,0.5,0,0.8,0
			c0.1,0,0.3,0,0.4,0c0.1,0,0.3,0,0.4,0c0.2-0.2-0.4-0.3-0.5-0.3c-0.3-0.1-0.5-0.2-0.7-0.3c-0.2-0.1-0.4-0.2-0.6-0.3
			c-0.1-0.1-0.3-0.1-0.3-0.2c0-0.1,0-0.2,0-0.4c0.1-0.6,0.2-1.2,0.3-1.8c0-0.3,0.2-1.3,0.2-1.3c0-0.1,0.1-0.6,0.1-0.8
			c0-0.1,0-0.3,0-0.4c0-0.3,0-0.3,0-0.4c0-0.2-0.1-0.2-0.3-0.3c-0.1-0.1-0.2-0.2-0.4-0.3c-0.1-0.1-0.3-0.2-0.4-0.3
			c-0.1-0.1-0.2-0.2-0.4-0.3C73.1,33.1,73,33,72.9,33c-0.2-0.2-0.5-0.3-0.7-0.4c-0.1-0.1-0.3-0.2-0.4-0.3c-0.1,0-0.1,0-0.2-0.1
			c-0.1,0-0.1-0.1-0.2-0.1c-0.1-0.1-0.3-0.2-0.4-0.3c-0.1,0-0.3,0-0.4,0c-0.2-0.1,0-0.2,0.1-0.3c0.1-0.1,0.1-0.2,0.2-0.3
			c0.2-0.2,0.3-0.5,0.6-0.6c0.1-0.1,0.2-0.3,0.3-0.4c0.1-0.1,0.2-0.2,0.2-0.3c0.2-0.2,0.5-0.3,0.6-0.5c0.1-0.1,0.1-0.3,0.3-0.3
			c0.1,0,0.3,0.1,0.3,0.1c0.2,0.1,0.5,0.3,0.7,0.4c0.1,0.1,0.3,0.1,0.4,0.2c0.1,0.1,0.1,0.2,0.2,0.3c0.2,0.2,0.6,0.1,0.8,0.1
			c0.3,0,0.6,0,0.9,0c0.1,0,0.2-0.1,0.4,0c0,0,0.1,0.1,0.1,0.1c0.1,0,0.1,0,0.2,0c0.1,0.1,0.2,0.2,0.3,0.2c0.2,0,0.2,0.1,0.3,0.2
			c0.1,0.1,0.5,0.2,0.6,0.1c0.2-0.1,0.4-0.2,0.6-0.4c0.4-0.3,0.9-0.4,1.3-0.7c0.2-0.1,0.4-0.4,0.5-0.5c0.1-0.1,0.1-0.3,0.3-0.3
			c0.1,0,0.2,0.1,0.3,0.2c0.2,0.1,0.5,0.2,0.7,0.4c0.2,0.1,0.5,0.3,0.7,0.4c0.1,0.1,0.3,0.1,0.3,0.2c0,0,0.1,0.1,0.1,0.1
			c0.1,0.1,0.1,0,0.2,0.1c0.1,0,0.1,0.1,0.1,0.2c0.1,0,0.1,0.1,0.2,0.1c0.1,0.1,0.2,0.1,0,0.2c-0.1,0.1-0.3,0.1-0.4,0.1
			c-0.1,0-0.3,0-0.4,0.1c-0.3,0.1-0.5,0.4-0.7,0.5c-0.3,0.1-0.5,0.2-0.8,0.4c-0.1,0.1-0.2,0.2-0.3,0.3c-0.1,0.1-0.2,0.2-0.3,0.3
			c-0.2,0.2-0.4,0.4-0.6,0.5c-0.2,0.1-0.5,0.4-0.6,0.6c-0.1,0.3,0,0.6,0.1,0.8c0.1,0.3,0.7,1.9,0.8,2.1c0.2,0.5,0.5,1,0.6,1.5
			c0.1,0.2,0.2,0.5,0.2,0.7c0,0.2,0.1,0.4,0.1,0.6c-0.1,0.3-0.4,0.5-0.6,0.6c-0.2,0.2-0.5,0.3-0.8,0.4c-0.1,0-0.7,0.2-0.5,0.4
			c0.2,0.1,0.5,0,0.7,0c0.5,0,1.1,0,1.6,0c0.3,0,0.5,0,0.8,0c0.3,0,0.1-0.5,0.1-0.7c0-0.1-0.1-0.3-0.2-0.4c0-0.1-0.2-0.5-0.2-0.7
			c0-0.2-0.3-1.6-0.4-1.9c-0.1-0.2,0-0.5,0-0.7c0-0.3-0.1-0.5-0.1-0.7c-0.1-0.2-0.1-0.5-0.2-0.7c0-0.1-0.2-0.2-0.1-0.3
			c0,0,0.2-0.1,0.2-0.1c0.3-0.2,0.6-0.1,0.9-0.3c0.3-0.2,0.6-0.3,0.9-0.4c0.3-0.1,0.7-0.1,0.9-0.2c0.1-0.1,0.6-0.4,0.7-0.5
			c0,0,0.2-0.1,0.2-0.1c0.1,0,0.1-0.1,0.2-0.1c0.1-0.1,0.2-0.1,0.4-0.2c0.1,0,0.3-0.2,0.4-0.1c0.1,0.1,0.2,0.2,0.3,0.3
			c0.1,0.2,0.3,0.6,0.4,0.8c0.1,0.1,0,0.3,0.1,0.5c0.1,0.1,0.2,0.2,0.3,0.2c0.1,0,0.2,0,0.3,0.1c0.1,0,0.1,0.1,0.1,0.2
			c0.1,0.1,0.2,0.2,0.3,0.3c0.1,0.1,0.2,0.1,0.3,0.2c0.1,0.1,0.2,0.2,0.3,0.3c0.1,0,0.8,0.7,0.9,0.8c0.1,0.1,0.2,0.2,0.3,0.3
			c0.2,0.2,1.1,0.9,1.3,1.1c0.2,0.2,0.5,0.3,0.7,0.6c0.1,0.1,0.5,0.5,0.6,0.6c0.4,0.4,0.5,1,0.8,1.4c0.1,0.1,0.2,0.2,0.2,0.4
			c0,0.1,0,0.3,0,0.4c0.1,0.2,0.3,0.2,0.5,0.2c0.2,0,0.5,0,0.7,0c0.2,0,0.1,0,0.1-0.2c0-0.1,0-0.3,0-0.3c0-0.1-0.2-0.2-0.2-0.3
			c-0.1-0.1-0.1-0.3-0.2-0.4c0-0.2,0-0.3-0.2-0.4C94.1,39.3,94,39.3,94,39c-0.1-0.3-0.5-0.5-0.6-0.8c-0.1-0.1-0.4-0.6-0.5-0.7
			c-0.1-0.1-0.6-0.8-0.7-1c-0.1-0.1-0.7-1.3-1.2-1.7c-0.2-0.1-0.8-0.5-0.8-0.6c-0.1-0.1-0.5-0.3-0.5-0.5c0-0.1-0.1-0.1-0.1-0.2
			c-0.1-0.1-0.1-0.1-0.1-0.2c-0.1-0.1-0.1-0.2-0.1-0.3c0-0.1-0.1-0.2-0.1-0.3c0-0.1-0.1-0.2-0.1-0.3c0-0.1-0.1-0.2-0.1-0.3
			c-0.1-0.4-0.3-0.6-0.5-1c-0.1-0.1,0-0.2-0.1-0.3c0-0.1-0.1-0.2-0.1-0.2c0-0.1,0-0.1,0-0.2c0-0.1,0-0.1-0.1-0.2
			c0-0.1-0.1-0.1-0.1-0.2C88,29.9,88,29.8,88,29.8c-0.1-0.2-0.3-0.2-0.3-0.4c0-0.1-0.1-0.1-0.1-0.2c0-0.1,0-0.2-0.1-0.2
			c-0.1-0.1-0.2-0.2-0.3-0.3c-0.1-0.2-0.3-0.3-0.5-0.5c-0.1-0.1-0.3-0.2-0.4-0.3c-0.2-0.2-0.3-0.4-0.6-0.7c-0.2-0.2-0.4-0.5-0.5-0.7
			c-0.3-0.5-0.5-1-0.9-1.4c-0.2-0.1-0.4-0.4-0.6-0.5c-0.1,0-0.4,0-0.6,0c-0.1,0-0.3,0.1-0.4,0.2C82.5,25,82.2,25.1,82,25
			c-0.3-0.1-0.3-0.5-0.3-0.8c0-0.2-0.2-0.4-0.4-0.6c-0.2-0.2-0.4-0.3-0.7-0.3c-0.3,0-0.6,0.1-0.9,0.1c-0.3,0.1-0.5,0.4-0.6,0.7
			c-0.1,0.3,0,0.6,0,0.9c0,0.1-0.1,0.3-0.1,0.4c0,0.1,0,0.1,0.1,0.1c0.1,0,0.1,0.1,0.1,0.2c0,0.1-0.1,0.2,0,0.2
			c0.1,0,0.1,0.2,0.1,0.3c0,0.1,0.2,0.2,0.3,0.2c0.2,0,0.5-0.3,0.7-0.1c0.1,0.1,0.2,0.2,0.2,0.3c0,0.1-0.1,0.3-0.2,0.3
			c-0.3,0.1-0.5,0.3-0.7,0.5c-0.1,0.1-0.2,0.2-0.3,0.3c-0.1,0.1-0.1,0.3-0.2,0.3c-0.1,0-0.3-0.1-0.4-0.2c-0.1-0.1-0.3,0-0.4,0
			c-0.3,0.1-0.4,0.4-0.7,0.4c-0.3,0-0.6,0-0.9,0c-0.3,0-0.5,0-0.8,0c-0.2,0-0.4-0.2-0.6-0.3c-0.1-0.1-0.2-0.2-0.2-0.4
			c0-0.1,0-0.3,0-0.4c0-0.1,0-0.2-0.1-0.3c0-0.1-0.1-0.1-0.1-0.1c-0.1-0.1-0.2-0.2-0.2,0c0,0.1,0.2,0.2,0.1,0.4
			c0,0.1-0.1,0.1-0.2,0.1c-0.2-0.1-0.2-0.4-0.4-0.5c-0.1-0.1-0.2,0-0.2,0.2c0,0.1-0.1,0-0.1,0c0-0.2-0.2-0.3-0.3-0.3
			c0,0-0.2-0.2-0.1-0.2c0.2,0,0.5,0.3,0.7,0c0.1-0.1,0.1-0.3,0.2-0.4c0,0,0.1-0.1,0.1-0.1c0-0.1-0.1-0.1-0.1-0.2c0,0,0.1,0,0.1-0.1
			c0-0.1,0-0.1,0-0.1c0-0.2,0-0.1,0.2-0.2c0.2-0.1-0.1-0.6-0.1-0.7c0-0.1,0.1-0.2,0.1-0.3c0-0.1,0-0.1,0-0.2c0-0.1-0.1-0.3-0.1-0.3
			c0-0.1,0.3-0.2,0.1-0.3c-0.1-0.1-0.1-0.2-0.2-0.3c-0.2-0.1-0.3-0.3-0.5-0.3c-0.1,0-0.2-0.1-0.3-0.1c-0.2,0-0.4,0-0.6,0
			c-0.1,0-0.3,0.1-0.4,0.1c-0.1,0-0.2,0.1-0.2,0.2c-0.1,0.1-0.2,0.1-0.2,0.2c-0.2,0.3-0.3,0.7-0.3,1c0,0.2,0,0.4,0.1,0.5
			c0.1,0.2,0.1,0.3-0.1,0.5c-0.1,0.1-0.3,0.1-0.5,0.1c-0.2,0.1-0.4,0.1-0.6,0.2c-0.3,0-0.5,0.2-0.8,0.4c-0.2,0.2-0.5,0.4-0.7,0.6
			c-0.1,0.1-0.2,0.2-0.3,0.3c-0.1,0.1-0.2,0.2-0.3,0.3c-0.2,0.3-0.4,0.5-0.6,0.7c-0.2,0.2-0.3,0.5-0.6,0.7c-0.2,0.2-0.5,0.3-0.7,0.5
			c-0.1,0.1-0.2,0.2-0.3,0.3c-0.1,0.1-0.1,0.2-0.1,0.4c0,0.1,0,0.3-0.1,0.4c-0.1,0-0.1,0.1-0.1,0.1c-0.1,0.1,0,0.1-0.1,0.2
			c-0.1,0.1,0,0.3-0.1,0.4c-0.1,0.1,0,0.3,0,0.4c0,0.1-0.1,0.1-0.1,0.2c0,0.1-0.1,0.1-0.1,0.2c0,0.1,0,0.2,0,0.3
			c0,0.1-0.1,0.2-0.1,0.3c0,0.2,0,0.4-0.1,0.5c0,0.2,0,0.4-0.1,0.5c0,0.1-0.1,0.2-0.1,0.3c0,0.1,0.1,0.2,0.1,0.3
			c0,0.1-0.3,0.5-0.4,0.6c-0.2,0.1-0.5,0.4-0.7,0.6c-0.4,0.4-0.7,0.9-1,1.4c-0.1,0.3-0.8,1.7-0.8,1.8c0,0.1-0.1,0.1-0.1,0.2
			c-0.1,0.1-0.1,0.2-0.2,0.4c-0.1,0.1-0.1,0.2-0.2,0.3c-0.1,0.1-0.3,0.2-0.3,0.3c-0.1,0.1-0.1,0.2-0.2,0.3c0,0.2-0.3,0.5-0.4,0.7
			C61.2,40.9,61.4,41.2,61.6,41.3z"/>
	</g>
	<g>
		<path class="st0" d="M130.1,62.3c0-0.2-0.1-0.2-0.3-0.2c0.1,0,0.2-0.1,0.1-0.2c-0.1-0.1-0.2,0-0.3,0c-0.1,0,0.2-0.2,0.2-0.2
			c0-0.2-0.3,0-0.4,0c-0.1,0-0.2,0.1-0.2,0c0-0.1,0.1-0.1,0.2-0.2c0.1-0.2-0.2-0.1-0.3-0.1c-0.1,0.1-0.2,0-0.3,0c-0.1,0-0.2,0-0.3,0
			c-0.2,0.1-0.4,0.2-0.6,0.3c-0.4,0.2-0.7,0.4-1.1,0.4c-0.2,0-0.4,0-0.6,0.1c-0.2,0.1-0.2,0.3-0.3,0.5c0,0.3,0,0.5-0.1,0.7
			c-0.1,0.2-0.3,0.4-0.5,0.5c-0.3,0.3-0.6,0.6-1,0.9c-0.2,0.1-0.4,0.2-0.5,0.4c-0.1,0.1-0.3,0.2-0.4,0.4c-0.1,0.2-0.3,0.3-0.5,0.4
			c-0.1,0.1-0.2,0.3-0.3,0.4c-0.2,0.3-0.3,0.7-0.4,1c-0.2,0.6-0.5,1.2-0.9,1.7c-0.1,0.1-0.2,0.3-0.3,0.4c-0.1,0.1-0.3,0.2-0.4,0.4
			c-0.2,0.2-0.6,0.4-0.8,0.7c-0.1,0.1-0.2,0.2-0.3,0.3c-0.1,0.1-0.2,0.3-0.3,0.3c-0.1,0.1-0.2,0.2-0.3,0.4c-0.1,0.1-0.2,0.2-0.3,0.3
			c-0.2,0.2-0.5,0.3-0.7,0.5c-0.1,0.1-0.3,0.1-0.4,0.2c-0.1,0.1-0.3,0.2-0.4,0.3c-0.4,0.3-0.7,0.8-0.9,1.3c-0.1,0.3-0.2,0.6-0.1,0.8
			c0,0.1,0.1,0.2,0,0.3c-0.1,0.1-0.1,0.3-0.1,0.4c-0.1,0.3-0.4,0.6-0.6,0.8c-0.3,0.2-0.6,0.3-0.9,0.5c-0.3,0.2-0.6,0.3-0.9,0.5
			c-0.2,0.1-0.3,0.3-0.5,0.4c-0.2,0.1-0.3,0.2-0.5,0.3c-0.2,0.1-0.4,0.2-0.6,0.4c-0.1,0.1-0.3,0.2-0.3,0.3c0,0.1-0.1,0.1-0.2,0.2
			c-0.1,0.1-0.1,0.2-0.1,0.3c-0.1,0.2-0.2,0.4-0.3,0.5c-0.1,0.1-0.1,0.3-0.1,0.4c0,0.2,0,0.4-0.2,0.5c0,0-0.2,0.1-0.2,0.1
			c0,0-0.1,0-0.2,0c-0.1,0.1-0.6-0.3-0.7-0.3c-0.3-0.1-0.6-0.2-0.9-0.2c-0.3,0-0.6,0-0.9,0.2c-0.2,0.2-0.4,0.3-0.5,0.5
			c-0.3,0.4-0.7,1.1-0.4,1.5c0,0.1,0.1,0.2,0.2,0.2c0.1,0.1,0.2,0.1,0.2,0.2c0.1,0.2,0.3,0.3,0.4,0.4c0.1,0.1,0.1,0.1,0.2,0.2
			c0.1,0,0.2,0,0.3,0c0.2,0.1,0.2,0.5,0.4,0.7c0.1,0,0.1,0,0.2,0c0.1,0,0.1-0.2,0.2-0.2c0.1,0,0.2,0.1,0.2,0.1
			c0.1,0,0.1-0.1,0.1-0.1c0,0,0.1,0.1,0.1,0.1c0.1,0,0.1,0,0.1,0c0.1,0,0.1,0,0.2,0c0.1,0,0.2,0.1,0.3,0c0,0,0.1-0.1,0.1-0.1
			c0,0,0-0.1,0-0.1c0.1-0.1,0.1-0.2,0.2-0.3c0.1-0.1,0.1-0.2,0.2-0.2c0.1-0.1,0.2-0.1,0.3-0.2c0.1-0.1,0.2-0.1,0.2-0.2
			c0.2-0.2,0.3-0.3,0.5-0.5c0.2-0.2,0.4-0.2,0.6-0.3c0.2-0.1,0.5,0,0.7,0c0.4,0.1,0.9,0,1.3-0.1c0.2-0.1,0.3,0.1,0.5,0.2
			c0.2,0.1,0.4,0.2,0.6,0.2c0.4,0.1,0.8,0.2,1.2,0.3c0.2,0,0.3,0.6,0.4,0.8c0,0.2,0,0.5,0.1,0.6c0.1,0.3,0.1,0.5,0.1,0.8
			c0,0.2,0,0.3,0,0.5c0,0.1,0,0.3,0,0.4c0,0.1,0,0.2-0.1,0.2c-0.1,0.1-0.1,0.1-0.2,0.1c-0.2,0-0.4,0-0.6,0c-0.2,0-0.3,0.2-0.5,0.2
			c-0.2,0-0.4,0-0.6,0.1c-0.2,0.1-0.4,0-0.6,0.1c-0.2,0.1,0.1,0.2,0.2,0.2c0.1,0,0.2,0,0.3,0c0.1,0,0.2,0,0.3,0
			c0.2,0,0.4-0.1,0.6-0.1c-0.1,0-0.1,0.1-0.2,0.1c-0.1,0-0.2,0.1-0.3,0.1c0,0-0.2,0-0.3,0c-0.1,0-0.2,0-0.3,0
			c-0.2,0-0.4,0.1-0.6,0.1c0,0-0.2,0.1-0.2,0.1c0,0.1,0.1,0.1,0.2,0.1c0.1,0,0.1,0.1,0.3,0.1c0.1,0,0.2,0,0.3,0c0,0,0.3,0,0.3,0
			c0,0.1,0.1,0.1,0.2,0.1c0.2,0,0.4,0,0.6-0.1c0.2,0,0.5-0.1,0.7,0c0.2,0,0.5,0,0.7,0c0.1,0,0.2,0,0.3-0.2c0.1-0.1,0.1-0.2,0.2-0.3
			c0.3-0.4,0.4-1,0.6-1.5c0.1-0.2,0.2-0.5,0.2-0.8c0-0.1,0-0.2,0-0.4c0-0.1,0.1-0.2,0.1-0.3c0-0.1,0-0.2,0-0.3c0-0.1,0-0.2,0-0.3
			c0-0.2-0.1-0.5,0-0.7c0-0.2,0.1-0.5,0.1-0.7c0-0.2-0.3-0.4-0.5-0.5c-0.4-0.2-0.8-0.5-1.2-0.7c-0.1,0-0.2-0.1-0.3-0.2
			c0,0-0.3-0.1-0.2-0.1c0.2-0.2,0.4-0.3,0.5-0.5c0.2-0.2,0.4-0.3,0.5-0.5c0.1-0.2,0.3-0.4,0.4-0.6c0.3-0.4,0.6-0.7,0.9-1
			c0.1-0.2,0.3-0.4,0.4-0.6c0.1-0.1,0.1-0.2,0.2-0.3c0,0,0.1-0.1,0.1-0.1c0,0,0-0.1,0-0.1c0.2-0.2,0.4-0.2,0.6-0.4
			c0.1-0.1,0.2-0.2,0.2-0.3c0.1-0.1,0.2-0.2,0.2-0.3c0.1-0.2,0.1-0.4,0.1-0.7c0-0.1,0-0.1,0.1-0.2c0.1-0.1,0.1-0.2,0.2-0.3
			c0.3-0.3,0.6-0.7,0.8-1.1c0.2-0.4,0.5-0.8,0.7-1.2c0.1-0.2,0.2-0.4,0.3-0.6c0.1-0.2,0.2-0.4,0.3-0.6c0.1-0.1,0.1-0.2,0.1-0.3
			c0-0.1,0.1-0.2,0.1-0.3c0-0.1,0.1-0.2,0.2-0.2c0.1-0.1,0.1-0.2,0.2-0.2c0.3-0.4,0.3-0.9,0.5-1.3c0.1-0.2,0.2-0.4,0.3-0.6
			c0.1-0.2,0.3-0.4,0.4-0.6c0.1-0.2,0.2-0.4,0.4-0.6c0.1-0.2,0.2-0.4,0.3-0.6c0.4-0.9,1.1-1.6,1.8-2.3c0.3-0.3,0.7-0.7,1-1
			c0.2-0.1,0.3-0.4,0.4-0.5c0.2-0.2,0.3-0.2,0.6-0.2c0.2,0,0.4,0,0.6,0.1c0.1,0,0.2-0.1,0.2-0.1c0-0.1-0.1-0.1-0.1-0.2
			C130,62.5,130,62.5,130.1,62.3C129.9,62.4,130,62.4,130.1,62.3z"/>
	</g>
</g>
</svg>
